<?xml version="1.0" encoding="utf-8"?>
<!-- Generator: Adobe Illustrator 19.0.0, SVG Export Plug-In . SVG Version: 6.00 Build 0)  -->
<svg version="1.1" id="Layer_1" xmlns="http://www.w3.org/2000/svg" xmlns:xlink="http://www.w3.org/1999/xlink" x="0px" y="0px"
	 viewBox="0 0 300 100" style="enable-background:new 0 0 300 100;" xml:space="preserve">
<style type="text/css">
	.st0{fill:#FFFFFF;}
</style>
<g id="XMLID_1_">
	<path id="XMLID_3_" class="st0" d="M6.5,34.4h20v7H15.4v3.9h8v6.7h-8v10.7H6.5V34.4z"/>
	<path id="XMLID_5_" class="st0" d="M47.6,58.5h-9.4l-1.4,4.3h-9.3l10.4-28.3h10.2l10.3,28.3H49L47.6,58.5z M42.9,43.9l-2.6,7.9h5.1
		L42.9,43.9z"/>
	<path id="XMLID_8_" class="st0" d="M60.4,34.4h10.9l6.2,17l6.1-17h10.8v28.3h-8.8V48.6l-4.4,14.1h-7.6l-4.4-14.1v14.1h-8.9V34.4z"
		/>
	<path id="XMLID_10_" class="st0" d="M98.5,34.4h8.9v28.3h-8.9V34.4z"/>
	<path id="XMLID_12_" class="st0" d="M120.2,34.4V56h8.6v6.7h-17.4V34.4H120.2z"/>
	<path id="XMLID_14_" class="st0" d="M129.6,34.4h10.2l4.5,10l4.5-10h10l-10.2,19.7v8.6h-8.9v-8.6L129.6,34.4z"/>
	<path id="XMLID_16_" class="st0" d="M162,35.2h3l10.7,23.9l10.7-23.9h3v27.6h-2.8v-22l-9.8,22h-2l-9.8-22v22H162V35.2z"/>
	<path id="XMLID_18_" class="st0" d="M211.8,56.1h-12.7l-2.4,6.6h-3l10.2-27.6h3.2l10.2,27.6h-3L211.8,56.1z M205.5,38.7L200,53.8
		h11L205.5,38.7z"/>
	<path id="XMLID_21_" class="st0" d="M219.7,34.8h18.4v2.3h-7.8v25.6h-2.8V37.1h-7.8V34.8z"/>
	<path id="XMLID_23_" class="st0" d="M254.9,34.5c6.2,0,10.9,3.1,12.9,8.5h-3.3c-1.6-3.7-4.8-6-9.6-6c-6.1,0-10.8,4.5-10.8,11.8
		c0,7.3,4.7,11.8,10.8,11.8c4.8,0,8-2.3,9.6-6h3.3c-2,5.3-6.6,8.4-12.9,8.4c-7.8,0-13.7-5.8-13.7-14.2
		C241.3,40.4,247.2,34.5,254.9,34.5z"/>
	<path id="XMLID_25_" class="st0" d="M291.3,49.7h-15.2v13.1h-2.8v-28h2.8v12.6h15.2V34.8h2.8v28h-2.8V49.7z"/>
</g>
<g id="XMLID_2_">
</g>
<g id="XMLID_27_">
</g>
<g id="XMLID_28_">
</g>
<g id="XMLID_29_">
</g>
<g id="XMLID_30_">
</g>
<g id="XMLID_31_">
</g>
</svg>
